# xmcd CD database file
#
# Track frame offsets:
#	217
#	29887
#	61175
#	92662
#	125115
#	162035
#	188785
#
# Disc length: 2896 seconds
#
# Revision: 0
# Processed by: cddbd v1.5.1PL0 Copyright (c) Steve Scherf et al.
# Submitted via: CDex 1.51
#
DISCID=5c0b4e07
DTITLE=Al Cohn and Jimmy Rowles - Heavy Love
DYEAR=1900
DGENRE=Jazz
TTITLE0=Them There Eyes
TTITLE1=Sweet And Lovely
TTITLE2=I Hadn't Anyone Till You
TTITLE3=Taking A Chance On Love
TTITLE4=These Foolish Things
TTITLE5=Bar Talk
TTITLE6=For All We Know
EXTD=
EXTT0=
EXTT1=
EXTT2=
EXTT3=
EXTT4=
EXTT5=
EXTT6=
PLAYORDER=
